<svg id="Layer_1" enable-background="new 0 0 512 512" height="512" viewBox="0 0 512 512" width="512" xmlns="http://www.w3.org/2000/svg"><g><path d="m512 512h-451.654c-33.318 0-60.326-27.009-60.326-60.326v-392.895h511.98z" fill="#ffd92e"/><path d="m512 512h-451.654c-33.318 0-60.326-27.009-60.326-60.326v-166.284h511.98z" fill="#fcbe00"/><g><path d="m382.352 384.911v32.412l33.535 54.74 31.289 10.455 7.408-10.455v-54.74-32.412z" fill="#ffea94"/><g><path d="m447.176 472.063 2.56 14.983 28.73-14.983 33.534-54.74v-32.412h-64.824z" fill="#ffd92e"/></g><path d="m382.352 93.216v191.215l129.648.233v-191.448z" fill="#ffd92e"/><path d="m382.352 93.216v291.695c0 17.901 14.511 32.412 32.412 32.412 17.901 0 32.412-14.511 32.412-32.412v-291.695z" fill="#6e67d5"/><g><path d="m479.588 417.323c17.901 0 32.412-14.511 32.412-32.412v-297.532h-64.824v297.532c0 17.901 14.511 32.412 32.412 32.412z" fill="#554cce"/></g><path d="m458.333 0h-50.126l-25.855 25.855v84.175h77.395v-84.175z" fill="#ff3980"/><path d="m486.145 0h-38.969v110.03h64.824v-84.175z" fill="#e20a6c"/><g><path d="m440.353 512h13.647l.584-39.937h-38.697z" fill="#3e34c2"/></g><g><path d="m447.176 512h6.824l24.466-39.937h-31.29z" fill="#23238e"/></g></g><path d="m60.326 0c-33.317 0-60.326 27.009-60.326 60.326v391.347c0-33.317 27.009-60.326 60.326-60.326h60.326v-391.347z" fill="#ffea94"/><path d="m0 285.39v166.284c0-33.317 27.009-60.326 60.326-60.326h60.326v-105.958z" fill="#ffd92e"/></g></svg>