<?xml version="1.0" encoding="iso-8859-1"?>
<!-- Generator: Adobe Illustrator 19.0.0, SVG Export Plug-In . SVG Version: 6.00 Build 0)  -->
<svg version="1.1" id="Layer_1" xmlns="http://www.w3.org/2000/svg" xmlns:xlink="http://www.w3.org/1999/xlink" x="0px" y="0px"
	 viewBox="0 0 508 508" style="enable-background:new 0 0 508 508;" xml:space="preserve">
<path style="fill:#E36D60;" d="M71.969,182l1.2,20h316.8c1.2,0,2,0.8,2,2s-0.8,2-2,2h-316.4l6.4,94c0.4,0,0.8,0,0.8,0
	c0.4,0.4,0.8,0.4,1.2,0.8c6.8,5.2,14.8,8,23.6,8c14.4,0,26-8,32.4-20c2.8-5.2,3.6-11.6,3.6-18v-4.4c0-14.4,11.6-26,26-26
	s26,11.6,26,26v6.4c0,1.6,1.2,2.8,1.2,4.4c2,8.8,9.6,15.6,19.2,15.6c11.2,0,19.6-8.8,19.6-20v-4l0,0c0-22,18.8-40,40.8-40
	c16.4,0,30,10,36.4,24c2,4.8,2.8,10.4,2.8,16v4c0,22,18.8,40,40.8,40s40.4-18,40.4-40c0-15.2,7.6-29.6,19.6-38.4
	c0,0,0.4-0.4,0.8-0.4c1.6-1.2,3.6-2.4,5.6-3.6c3.6-2,7.6-2.8,11.6-4l3.2-45.2h-363.6L71.969,182L71.969,182z"/>
<path style="fill:#FFC52F;" d="M421.169,230.8c-2,1.2-3.6,2-5.6,3.6c0.4,0-0.8,0.8-0.8,0.4c-11.6,8.8-19.2,22.8-19.2,38.4
	c0,22-18.8,40-40.8,40s-40.8-18-40.8-40v-4c0-5.6-0.4-10.8-2.4-16c-6-14-20.8-24-37.2-24c-22,0-40.4,18-40.4,40l0,0v4
	c0,11.2-8,20-19.2,20c-9.6,0-18-6.8-20-15.6c-0.4-1.2-0.8-2.8-0.8-4.4v-6.4c0-14.4-11.6-26-26-26s-26,11.6-26,26v4.4
	c0,6.4-0.8,12.8-3.6,18c-6.4,12-18.4,20-32.8,20c-8.4,0-16.8-2.8-23.2-8c-0.4-0.4-0.8-0.8-1.2-0.8c-0.4-0.4-0.4-0.4-0.8-0.4v2v0.4
	v2.8l12.4,178.4c0,10.8,8.8,18.8,19.6,18.8h283.2c10.8,0,19.6-8,19.6-18.8l16-252.8l-1.2-1.6l0,0l1.6-2
	C427.169,227.6,424.769,229.2,421.169,230.8z"/>
<path style="fill:#EF934A;" d="M333.969,14c0-4.4-3.6-8-8-8h-148c-4.4,0-8,3.6-8,8v8c0,4.4,3.6,8,8,8h148c4.4,0,8-3.6,8-8V14z"/>
<path d="M353.969,319.2c-25.2,0-46-20.8-46-46v-4c0-18.8-15.2-34-34-34s-34,15.2-34,34v4c0,14-12,26-26,26s-26-12-26-26v-6.4
	c0-11.2-8.8-20-20-20s-20,8.8-20,20v4.4c0,24.4-19.2,44-43.2,44c-10.8,0-20.8-3.6-28.8-10.4c-1.6-1.6-2-4-0.4-5.6s4-2,5.6-0.4
	c6.4,5.6,14.4,8.4,23.2,8.4c19.6,0,35.2-16,35.2-36v-4.4c0-15.6,12.4-28,28-28s28,12.4,28,28v6.4c0,9.6,8.4,18,18,18s18-8.4,18-18
	v-4c0-23.2,18.8-42,42-42s42,18.8,42,42v4c0,20.8,17.2,38,38,38s38-17.2,38-38c0-23.2,16.8-43.6,40.4-48.8c2-0.4,4.4,0.8,4.8,3.2
	c0.4,2-0.8,4.4-3.2,4.8c-19.6,4-34,21.2-34,40.8C399.969,298.4,379.169,319.2,353.969,319.2z"/>
<path d="M395.169,508h-282.8c-14.4,0-25.6-10.8-25.6-24.8l-20.8-304.4c0-2.4,1.6-4,3.6-4.4c2,0,4,1.6,4.4,3.6l20.8,304.8
	c0,10,7.6,17.2,17.6,17.2h282.8c10,0,17.6-7.2,17.6-16.8l21.2-304.8c0-2.4,2-4,4.4-3.6c2.4,0,4,2,3.6,4.4l-21.2,304.4
	C420.769,497.2,409.569,508,395.169,508z"/>
<path d="M433.969,184h-364c-2.4,0-4-1.6-4-4s1.6-4,4-4h364c2.4,0,4,1.6,4,4S436.369,184,433.969,184z"/>
<path d="M393.969,208h-320c-2.4,0-4-1.6-4-4s1.6-4,4-4h320c2.4,0,4,1.6,4,4S396.369,208,393.969,208z"/>
<path d="M325.969,36h-148c-8,0-14-6-14-14v-8c0-8,6-14,14-14h148c8,0,14,6,14,14v8C339.969,30,333.969,36,325.969,36z M177.969,8
	c-3.2,0-6,2.8-6,6v8c0,3.2,2.8,6,6,6h148c3.2,0,6-2.8,6-6v-8c0-3.2-2.8-6-6-6H177.969z"/>
<path d="M399.569,488L399.569,488c-2.4,0-4-2-4-4.4l1.2-16.8c0-2,2-4,4.4-3.6c2.4,0,4,2,3.6,4.4l-1.2,16.8
	C403.569,486.4,401.569,488,399.569,488z"/>
<path d="M401.969,451.6L401.969,451.6c-2.4,0-4-2-4-4.4l14.4-211.2c0-2.4,2-4,4.4-3.6c2.4,0,4,2,3.6,4.4l-14.4,211.2
	C405.969,450,403.969,451.6,401.969,451.6z"/>
<path d="M437.969,182.8c-2.4,0-4-1.6-4-4c0-68-37.6-129.6-98.4-160.4c-2-1.2-2.8-3.6-1.6-5.2c1.2-2,3.6-2.8,5.2-1.6
	c63.2,32.4,102.4,96.4,102.4,167.6C441.969,181.2,440.369,182.8,437.969,182.8z"/>
<path d="M69.969,182.8c-2.4,0-4-1.6-4-4c0-70.8,38.4-134.8,100-166.4c2-1.2,4.4-0.4,5.2,1.6c1.2,2,0.4,4.4-1.6,5.2
	c-59.2,30.4-96,91.2-96,159.2C73.969,181.2,72.369,182.8,69.969,182.8z"/>
<g>
</g>
<g>
</g>
<g>
</g>
<g>
</g>
<g>
</g>
<g>
</g>
<g>
</g>
<g>
</g>
<g>
</g>
<g>
</g>
<g>
</g>
<g>
</g>
<g>
</g>
<g>
</g>
<g>
</g>
</svg>
