<?xml version="1.0" encoding="iso-8859-1"?>
<!-- Generator: Adobe Illustrator 19.0.0, SVG Export Plug-In . SVG Version: 6.00 Build 0)  -->
<svg version="1.1" id="Layer_1" xmlns="http://www.w3.org/2000/svg" xmlns:xlink="http://www.w3.org/1999/xlink" x="0px" y="0px"
	 viewBox="0 0 512 512" style="enable-background:new 0 0 512 512;" xml:space="preserve">
<circle style="fill:#FF5B62;" cx="256" cy="256" r="256"/>
<path style="fill:#666666;" d="M103.982,3.034h178.881c2.823,0,5.113,2.29,5.113,5.113v343.59c0,2.823-2.29,5.113-5.113,5.113
	H103.982c-2.823,0-5.113-2.29-5.113-5.113V8.147C98.87,5.324,101.158,3.034,103.982,3.034z"/>
<path style="fill:#FFFFFF;" d="M111.821,50.784H275.02c2.194,0,3.972,1.779,3.972,3.972V305.13c0,2.194-1.779,3.972-3.972,3.972
	H111.821c-2.194,0-3.972-1.779-3.972-3.972V54.755C107.848,52.561,109.627,50.784,111.821,50.784z"/>
<g>
	<path style="fill:#C0C1C4;" d="M150.475,24.876h85.89c1.974,0,3.575,1.6,3.575,3.573l0,0c0,1.973-1.601,3.573-3.575,3.573h-85.89
		c-1.974,0-3.575-1.6-3.575-3.573l0,0C146.9,26.476,148.501,24.876,150.475,24.876z"/>
	<circle style="fill:#C0C1C4;" cx="192.714" cy="334.038" r="11.866"/>
	<circle style="fill:#C0C1C4;" cx="122.421" cy="28.752" r="4.055"/>
</g>
<circle style="fill:#21D0C3;" cx="193.422" cy="256.299" r="28.673"/>
<path style="fill:#FEFEFE;" d="M182.52,237.931c-2.591,1.833-7.372,7.931-3.644,15.505c2.545,5.168,9.69,14.023,14.189,17.598
	c6.614,5.243,13.583,1.866,15.926-0.281c1.995-1.829-4.886-13.057-10.42-5.944c-3.889,4.997-18.138-12.692-12.443-15.431
	C194.247,245.47,184.732,236.37,182.52,237.931z"/>
<circle style="fill:#FAD24D;" cx="193.422" cy="135.895" r="65.283"/>
<path style="fill:#B3B3B3;" d="M184.321,134.217c6.064,0,12.129,0,18.193,0l0.102,1.243l-8.892,13.483l-9.551-13.611l0.148-1.109
	L184.321,134.217L184.321,134.217z"/>
<path style="fill:#F0BA7D;" d="M184.442,130.835l-0.157,7.602l-12.9,7.053v25.86h21.718h21.713v-25.86l-11.991-7.45l-0.656-7.602
	L184.442,130.835z"/>
<path style="fill:#FED298;" d="M178.478,108.661c0,0-0.739-1.626-2.725-0.822c-1.986,0.803,0.088,8.836,0.85,9.959
	c0.758,1.118,1.977,0.406,2.425,0.365c0.633,4.79,0.689,8.087,2.605,10.106c1.815,1.912,5.972,5.806,8.161,7.164
	c1.483,0.314,2.591,0.499,3.63,0.55c1.039-0.056,2.148-0.241,3.63-0.55c2.19-1.358,6.347-5.252,8.161-7.164
	c1.917-2.018,1.972-5.317,2.605-10.106c0.443,0.042,1.668,0.758,2.425-0.365c0.758-1.123,2.835-9.15,0.85-9.959
	c-1.986-0.803-2.725,0.822-2.725,0.822s1.963-6.31-1.524-12.517c-2.392-4.254-7.843-6.461-13.418-6.623
	c-5.57,0.162-11.025,2.369-13.418,6.623c-3.492,6.208-1.524,12.517-1.524,12.517H178.478z"/>
<path style="fill:#15BDB2;" d="M177.956,140.678l3.09-1.215l2.489-2.236l8.79,6.665h2.19l8.794-6.674l5.579,3.464l9.69,16.475
	l-7.676,41.648c-5.565,1.543-11.427,2.369-17.482,2.369c-4.937,0-9.75-0.55-14.374-1.594l-13.759-41.111l12.664-17.791
	L177.956,140.678L177.956,140.678z"/>
<g>
	<path style="fill:#21D0C3;" d="M206.067,138.595l-3.547-4.378l-7.999,9.672l6.869,7.63l4.684-12.928L206.067,138.595z"/>
	<path style="fill:#21D0C3;" d="M180.77,138.516l3.552-4.3l8.004,9.672l-7.141,7.551l-4.415-12.928L180.77,138.516L180.77,138.516z"
		/>
</g>
<path style="fill:#FFFFFF;" d="M180.77,138.516l-23.523,7.649c-0.956,0.309-1.557,1.123-1.751,2.111l-6.919,35.052
	c4.66,4.406,9.968,8.129,15.764,11.015l3.436-11.224c0.037-0.13,0.162-0.208,0.295-0.194s0.236,0.125,0.245,0.258l0.494,13.177
	c7.593,3.095,15.902,4.804,24.604,4.804v-4.378l-12.651-58.279L180.77,138.516z"/>
<g>
	<path style="fill:#EEF3F7;" d="M180.77,138.516l-2.693,0.826l-7.136,12.179l9.011,0.281l-5.533,3.15l19.006,41.841l-12.651-58.279
		L180.77,138.516L180.77,138.516z"/>
	<path style="fill:#EEF3F7;" d="M206.067,138.595l23.528,7.57c0.956,0.309,1.557,1.123,1.751,2.111l6.918,35.052
		c-4.66,4.406-9.968,8.129-15.764,11.02l-3.441-11.224c-0.037-0.13-0.162-0.208-0.295-0.194c-0.134,0.014-0.236,0.125-0.241,0.258
		l-0.494,13.177c-7.593,3.095-15.902,4.804-24.604,4.804l0,0v-4.378l12.646-58.201L206.067,138.595z"/>
</g>
<path style="fill:#FFFFFF;" d="M206.067,138.595l1.496,0.457l8.337,12.549l-9.011,0.281l5.533,3.15l-18.997,41.762l12.646-58.201
	h-0.004V138.595z"/>
<path style="fill:#D9DADA;" d="M196.09,196.519c-0.794,0-1.436,0.642-1.436,1.432c0,0.794,0.642,1.432,1.436,1.432
	c0.794,0,1.436-0.642,1.436-1.432S196.884,196.519,196.09,196.519z"/>
<path style="fill:#666666;" d="M206.648,110.541l1.385-0.046l0.443-1.58l1.307-1.302c0.859-6.484,1.113-16.573-5.321-16.281
	c0,0-0.582-7.358-12.189-5.916c-11.611,1.441-16.854,8.938-16.23,15.191c0.624,6.254,0.374,7.011,0.374,7.011l1.302,1.302
	l0.199,1.796l1.141-0.074c0,0,0.355-2.406,0.712-3.464c0.355-1.058,0.245-3.201,0.245-3.201s13.713,0.873,17.417-3.839
	c2.291-2.91,7.542-7.953,7.811-0.97c0.079,2.069-0.693,5.173,0.78,7.436c1.473,2.259,0.624,3.94,0.624,3.94L206.648,110.541
	L206.648,110.541z"/>
<path style="fill:#0F7986;" d="M193.42,196.792l3.704-17.062l-2.517-33.629l1.371-0.587l-1.464-1.631h-2.19l-1.506,1.594
	l1.413,0.624l-2.457,33.902L193.42,196.792z"/>
<path style="fill:#FFFFFF;" d="M195.96,196.519c-0.721,0-1.307,0.587-1.307,1.307c0,0.721,0.587,1.307,1.307,1.307
	s1.307-0.587,1.307-1.307C197.268,197.106,196.681,196.519,195.96,196.519z"/>
<path style="fill:#FEFEFE;" d="M216.472,174.922c-2.55-0.439-4.254-2.859-3.816-5.408c0.439-2.55,2.863-4.259,5.408-3.816
	c2.55,0.439,4.254,2.863,3.816,5.408C221.442,173.657,219.017,175.365,216.472,174.922z"/>
<path style="fill:#0F7986;" d="M216.519,174.654c-2.401-0.416-4.009-2.693-3.593-5.094c0.416-2.397,2.693-4.009,5.094-3.593
	c2.401,0.416,4.009,2.698,3.593,5.094C221.197,173.457,218.92,175.07,216.519,174.654z"/>
<path style="fill:#EBECEC;" d="M216.851,172.715c-1.325-0.231-2.217-1.492-1.991-2.818c0.231-1.325,1.492-2.217,2.817-1.986
	c1.325,0.231,2.217,1.492,1.991,2.818c-0.231,1.325-1.492,2.217-2.817,1.991V172.715z"/>
<path style="fill:#FEFEFE;" d="M217.138,168.17l1.072,0.185l0.577-3.339l-1.072-0.185L217.138,168.17z"/>
<path style="fill:#21D0C3;" d="M181.241,175.851l2.009-0.397c0.854-0.171,1.561-0.67,2.009-1.344s0.647-1.52,0.476-2.374
	l-2.36-11.898c-0.891-4.489-4.401-6.781-8.42-7.289c-1.538-0.194-3.15-0.125-4.711,0.185c-1.561,0.309-3.081,0.859-4.424,1.626
	c-3.505,2-5.871,5.45-4.979,9.949l2.36,11.898c0.171,0.854,0.675,1.561,1.344,2.009l0,0c0.675,0.453,1.52,0.647,2.369,0.476
	l2.009-0.397l-0.162-0.826l-2.009,0.397c-0.628,0.125-1.247-0.019-1.737-0.346l0,0c-0.494-0.332-0.863-0.85-0.988-1.473
	l-2.36-11.903c-0.808-4.083,1.353-7.224,4.563-9.052c1.271-0.721,2.698-1.243,4.176-1.533s2.997-0.36,4.443-0.176
	c3.672,0.466,6.887,2.545,7.695,6.619l2.36,11.903c0.125,0.624-0.019,1.248-0.351,1.737c-0.332,0.494-0.85,0.863-1.473,0.988
	l-2.009,0.397l0.162,0.826L181.241,175.851L181.241,175.851z"/>
<path style="fill:#4D4D4D;" d="M184.012,161.597l-0.36-1.819c-0.919-4.628-4.535-6.988-8.66-7.51c-1.566-0.199-3.21-0.13-4.799,0.19
	c-1.594,0.314-3.136,0.877-4.508,1.658c-3.607,2.055-6.037,5.612-5.118,10.249l0.36,1.819l1.376-0.272l-0.36-1.819
	c-0.78-3.94,1.316-6.983,4.429-8.757c1.243-0.707,2.642-1.215,4.092-1.501c1.446-0.286,2.937-0.351,4.355-0.176
	c3.561,0.448,6.674,2.462,7.454,6.398l0.36,1.819l1.381-0.272L184.012,161.597z"/>
<g>
	<path style="fill:#076673;" d="M167.338,178.793l1.072-0.213c0.267,0.3,0.689,0.457,1.113,0.374
		c0.638-0.13,1.053-0.749,0.928-1.385c-0.13-0.638-0.749-1.053-1.385-0.928c-0.425,0.083-0.753,0.388-0.887,0.771l-1.072,0.213
		L167.338,178.793z"/>
	<path style="fill:#076673;" d="M182.095,175.86l-1.072,0.213c-0.134,0.383-0.462,0.689-0.887,0.771
		c-0.638,0.125-1.261-0.291-1.385-0.928c-0.125-0.638,0.291-1.261,0.928-1.385c0.425-0.083,0.845,0.074,1.113,0.374l1.076-0.213
		l0.231,1.169h-0.003V175.86z"/>
</g>
<path style="fill:#666666;" d="M170.843,152.35l-0.411-2.065l-0.812,0.162l-0.812,0.162l0.416,2.083
	c0.309-0.093,0.624-0.167,0.942-0.231c0.227-0.046,0.453-0.083,0.684-0.116L170.843,152.35z"/>
<g>
	<path style="fill:#0F7986;" d="M169.089,177.643c0.194-0.037,0.318-0.227,0.281-0.42c-0.037-0.194-0.227-0.318-0.42-0.281
		c-0.194,0.037-0.318,0.227-0.281,0.42C168.706,177.555,168.894,177.68,169.089,177.643z"/>
	<path style="fill:#0F7986;" d="M179.707,175.532c0.194-0.037,0.318-0.227,0.277-0.42c-0.037-0.194-0.227-0.318-0.42-0.281
		s-0.318,0.227-0.277,0.42c0.037,0.194,0.227,0.318,0.42,0.277V175.532z"/>
</g>
<path style="fill:#FEFEFE;" d="M216.722,172.692c-1.257-0.217-2.097-1.408-1.88-2.665c0.218-1.257,1.408-2.097,2.665-1.88
	c1.257,0.217,2.097,1.408,1.88,2.665C219.17,172.068,217.978,172.908,216.722,172.692z"/>
<g>
	<path style="fill:#4D4D4D;" d="M180.783,139.136c-0.037,0-12.715,0.106-10.572,11.196l-1.178,0.227
		c-2.415-12.503,11.699-12.618,11.736-12.623l0.014,1.197L180.783,139.136L180.783,139.136z"/>
	<path style="fill:#4D4D4D;" d="M206.081,137.995c2.069,0.056,6.069,0.619,9.145,4.364c3.011,3.663,5.122,10.393,3.543,22.729
		l-1.187-0.153c1.529-11.94-0.448-18.369-3.28-21.814c-2.772-3.367-6.379-3.875-8.249-3.926l0.028-1.197v-0.003H206.081z"/>
</g>
<path style="fill:#FED198;" d="M193.633,353.687h0.005c3.413-5.774,10.249-6.092,16.65-4.055l39.721,12.683l-0.988-8.397
	l-5.737-19.44l-18.101-39.925l-18.115-40.312c-2.835-6.314-0.217-13.921,6.032-16.568c6.249-2.642,13.574,0.046,16.424,6.351
	l31.177,69.074l3.067-1.169l-7.958-15.81c-3.109-6.18-0.139-13.755,6.032-16.563c6.175-2.803,13.316,0.176,16.429,6.351
	l8.646,17.181l3.468-1.321l-5.774-10.993c-3.215-6.124-0.213-13.921,6.032-16.563c6.249-2.647,13.21,0.231,16.429,6.356
	l6.489,12.351l4.157-1.584l-3.044-6.429c-2.96-6.249-0.213-13.917,6.032-16.559c6.249-2.642,13.464,0.102,16.424,6.351l6.31,13.316
	l1.288,2.171l28.142,74.339c3.82,10.087,3.45,20.152,1.21,26.835c-0.642,1.917-1.436,3.552-2.332,4.836l32.52,74.071l-79.573,35.948
	l-28.46-81.563c-21.403-0.988-77.914-41.421-98.366-54.03c-5.741-3.542-7.649-11.163-4.236-16.932L193.633,353.687L193.633,353.687z
	"/>
<path style="fill:#F0B97D;" d="M331.027,503.354l-6.333,2.863l-28.46-81.563c-21.403-0.988-77.914-41.421-98.366-54.03
	c-1.03-0.633-1.935-1.399-2.712-2.268c30.008,15.893,80.436,51.993,104.14,52.326l31.731,82.676L331.027,503.354L331.027,503.354z"
	/>
<path style="fill:#21D0C3;" d="M303.675,469.918l90.929-39.744l18.526,36.091l-94.518,42.696l-14.937-39.047V469.918z"/>
<g>
	<path style="fill:#FFFFFF;" d="M299.268,452.187l85.203-37.754l7.252,16.9l-85.198,37.754l-7.252-16.905L299.268,452.187z"/>
	<path style="fill:#FFFFFF;" d="M386.54,446.686c4.697-2.042,10.152,0.088,12.184,4.758c2.032,4.665-0.13,10.106-4.827,12.147
		c-4.697,2.042-10.152-0.093-12.189-4.758C379.681,454.164,381.843,448.728,386.54,446.686z"/>
	<path style="fill:#FFFFFF;" d="M224.606,244.347l4.586,9.843l-15.103,6.827l-4.591-9.843
		C205.886,243.428,221.789,236.347,224.606,244.347z M204.251,352.763L204.251,352.763l12.059,4.914l-6.096,15.594l-12.059-4.914
		c-7.838-3.196-1.672-18.766,6.101-15.593h-0.005V352.763z"/>
</g>
<rect x="164.199" y="207.934" style="fill:#EEF3F7;" width="61.131" height="8.106"/>
<g>
</g>
<g>
</g>
<g>
</g>
<g>
</g>
<g>
</g>
<g>
</g>
<g>
</g>
<g>
</g>
<g>
</g>
<g>
</g>
<g>
</g>
<g>
</g>
<g>
</g>
<g>
</g>
<g>
</g>
</svg>
